<svg width="34" height="63" viewBox="0 0 34 63" fill="none" xmlns="http://www.w3.org/2000/svg">
<path d="M33.8992 16.9673C33.8619 7.56599 26.2914 0 16.9682 0C7.60773 0 0 7.6409 0 17.0422C0 23.3347 3.39365 28.8407 8.46547 31.7996V46.0327C8.65193 50.5648 12.3812 54.198 16.9309 54.198C17.8633 54.198 18.7956 54.0482 19.616 53.7485C22.9351 52.5874 25.2845 49.4037 25.2845 45.6581C25.2845 42.5493 23.6436 39.8151 21.145 38.3169V45.6956C21.145 48.0553 19.2431 49.9281 16.8936 49.9281C14.5442 49.9281 12.6423 48.0178 12.6423 45.6581V16.9673C12.6796 14.6451 14.5815 12.7723 16.8936 12.7723C19.2058 12.7723 21.1077 14.6451 21.145 16.9673V22.4732H25.3964V16.9673C25.3964 12.2854 21.6298 8.50238 16.9682 8.50238C12.3066 8.50238 8.54005 12.2854 8.50276 16.9298V26.5184C5.89226 24.1962 4.25138 20.7878 4.25138 17.0048C4.25138 9.96314 9.95718 4.23246 16.9682 4.23246C23.9793 4.23246 29.6478 9.92568 29.6851 16.9298V22.4732H33.9365L33.8992 16.9673Z" fill="white"/>
<path d="M21.1823 29.1778V33.635C26.105 35.3954 29.6478 40.1147 29.6478 45.6956C29.6478 52.7372 23.942 58.4679 16.9309 58.4679C9.91989 58.4679 4.21409 52.7372 4.21409 45.6956V40.1897H0V45.7331C0 55.1344 7.60773 62.7753 16.9682 62.7753C26.3287 62.7753 33.9365 55.1344 33.9365 45.7331C33.8992 37.7176 28.4917 31.0505 21.1823 29.1778Z" fill="white"/>
</svg>
